<svg xmlns="http://www.w3.org/2000/svg" width="1024" height="1024" fill="none"><path fill="#000" d="M0 0h1024v1024H0z"/><path stroke="#fff" stroke-linecap="round" stroke-linejoin="round" stroke-width="42.667" d="M341.324 554.668a21.34 21.34 0 0 1-19.316-12.125 21.338 21.338 0 0 1 2.676-22.649l211.2-217.6a10.669 10.669 0 0 1 17.863 2.776 10.67 10.67 0 0 1 .484 7.038l-40.96 128.426a21.325 21.325 0 0 0 2.476 19.657 21.339 21.339 0 0 0 17.577 9.143h149.333a21.33 21.33 0 0 1 19.317 12.125 21.335 21.335 0 0 1-2.677 22.649l-211.2 217.599a10.665 10.665 0 0 1-18.346-9.813l40.96-128.426a21.338 21.338 0 0 0-10.139-26.393 21.321 21.321 0 0 0-9.915-2.407H341.324Z"/></svg>