<svg width="1024" height="1024" viewBox="0 0 1024 1024" fill="none" xmlns="http://www.w3.org/2000/svg">
<rect width="1024" height="1024" fill="black"/>
<path d="M341.324 554.668C337.287 554.681 333.329 553.549 329.91 551.403C326.49 549.257 323.75 546.184 322.008 542.543C320.265 538.901 319.592 534.84 320.065 530.831C320.539 526.822 322.141 523.029 324.684 519.894L535.884 302.294C537.468 300.466 539.627 299.23 542.006 298.79C544.385 298.35 546.844 298.732 548.977 299.873C551.11 301.014 552.793 302.847 553.747 305.07C554.702 307.293 554.872 309.775 554.231 312.108L513.271 440.534C512.063 443.767 511.657 447.244 512.089 450.668C512.52 454.091 513.775 457.359 515.747 460.191C517.719 463.023 520.349 465.334 523.41 466.927C526.471 468.519 529.873 469.345 533.324 469.334H682.657C686.694 469.32 690.652 470.452 694.072 472.599C697.491 474.745 700.231 477.817 701.974 481.459C703.716 485.1 704.39 489.162 703.916 493.171C703.442 497.18 701.841 500.972 699.297 504.108L488.097 721.707C486.513 723.536 484.354 724.772 481.975 725.212C479.596 725.652 477.138 725.27 475.004 724.129C472.871 722.988 471.189 721.155 470.234 718.932C469.28 716.709 469.109 714.227 469.751 711.894L510.711 583.468C511.919 580.235 512.324 576.758 511.893 573.334C511.461 569.91 510.206 566.642 508.234 563.81C506.262 560.979 503.633 558.667 500.572 557.075C497.51 555.482 494.108 554.656 490.657 554.668H341.324Z" stroke="white" stroke-width="42.6667" stroke-linecap="round" stroke-linejoin="round"/>
</svg>
